<svg width="25" height="20" viewBox="0 0 25 20" fill="none" xmlns="http://www.w3.org/2000/svg">
<path opacity="0.4" d="M12.5 10C16.4453 10 19.6429 7.76172 19.6429 5C19.6429 2.23828 16.4453 0 12.5 0C8.55469 0 5.35714 2.23828 5.35714 5C5.35714 7.76172 8.55469 10 12.5 10ZM17.846 11.2734L15.1786 18.75L13.3929 13.4375L15.1786 11.25H9.82143L11.6071 13.4375L9.82143 18.75L7.15402 11.2734C3.17522 11.4062 0 13.6836 0 16.5V18.125C0 19.1602 1.19978 20 2.67857 20H22.3214C23.8002 20 25 19.1602 25 18.125V16.5C25 13.6836 21.8248 11.4062 17.846 11.2734Z" fill="#9944D7"/>
</svg>
