<svg width="27" height="26" viewBox="0 0 27 26" fill="none" xmlns="http://www.w3.org/2000/svg">
<path d="M22.8868 18.586H21.0332C20.9066 18.586 20.788 18.6393 20.7089 18.7332C20.5243 18.9491 20.3266 19.1573 20.1183 19.3553C19.2663 20.1765 18.2572 20.831 17.1467 21.2825C15.9962 21.7504 14.7596 21.9905 13.5106 21.9883C12.2477 21.9883 11.0242 21.7497 9.87461 21.2825C8.7641 20.831 7.75497 20.1765 6.90303 19.3553C6.04956 18.5369 5.36903 17.5668 4.89912 16.4989C4.41133 15.3918 4.16611 14.2163 4.16611 13C4.16611 11.7838 4.41397 10.6082 4.89912 9.50121C5.36846 8.43227 6.04346 7.46996 6.90303 6.64477C7.7626 5.81957 8.76192 5.16957 9.87461 4.71762C11.0242 4.25043 12.2477 4.01176 13.5106 4.01176C14.7736 4.01176 15.9971 4.24789 17.1467 4.71762C18.2594 5.16957 19.2587 5.81957 20.1183 6.64477C20.3266 6.84535 20.5217 7.05356 20.7089 7.26684C20.788 7.36078 20.9093 7.4141 21.0332 7.4141H22.8868C23.0529 7.4141 23.1558 7.23637 23.0635 7.1018C21.0411 4.07523 17.5026 2.07191 13.4816 2.08207C7.16406 2.0973 2.09893 7.03578 2.16221 13.1118C2.22549 19.0913 7.28272 23.918 13.5106 23.918C17.5211 23.918 21.0438 21.9172 23.0635 18.8983C23.1531 18.7637 23.0529 18.586 22.8868 18.586ZM25.2309 12.8401L21.4894 9.99633C21.3496 9.88969 21.1466 9.98617 21.1466 10.1563V12.086H12.8673C12.7513 12.086 12.6563 12.1774 12.6563 12.2891V13.711C12.6563 13.8227 12.7513 13.9141 12.8673 13.9141H21.1466V15.8438C21.1466 16.0139 21.3522 16.1104 21.4894 16.0038L25.2309 13.16C25.2561 13.141 25.2765 13.1167 25.2905 13.089C25.3045 13.0613 25.3118 13.0309 25.3118 13C25.3118 12.9692 25.3045 12.9388 25.2905 12.9111C25.2765 12.8834 25.2561 12.8591 25.2309 12.8401Z" fill="#9944D7"/>
</svg>
