<svg width="19" height="22" viewBox="0 0 19 22" fill="none" xmlns="http://www.w3.org/2000/svg">
<path d="M18.6675 17.5V18.5H0.66748V17.5L2.66748 15.5V9.5C2.66748 6.4 4.69748 3.67 7.66748 2.79C7.66748 2.69 7.66748 2.6 7.66748 2.5C7.66748 1.96957 7.87819 1.46086 8.25327 1.08579C8.62834 0.710714 9.13705 0.5 9.66748 0.5C10.1979 0.5 10.7066 0.710714 11.0817 1.08579C11.4568 1.46086 11.6675 1.96957 11.6675 2.5C11.6675 2.6 11.6675 2.69 11.6675 2.79C14.6375 3.67 16.6675 6.4 16.6675 9.5V15.5L18.6675 17.5ZM11.6675 19.5C11.6675 20.0304 11.4568 20.5391 11.0817 20.9142C10.7066 21.2893 10.1979 21.5 9.66748 21.5C9.13705 21.5 8.62834 21.2893 8.25327 20.9142C7.87819 20.5391 7.66748 20.0304 7.66748 19.5" fill="white"/>
</svg>
