<svg width="25" height="20" viewBox="0 0 25 20" fill="none" xmlns="http://www.w3.org/2000/svg">
<path fill-rule="evenodd" clip-rule="evenodd" d="M19.4445 11.1111C19.0762 11.1111 18.7229 11.2282 18.4624 11.4365C18.202 11.6449 18.0556 11.9275 18.0556 12.2222C18.0556 12.5169 18.202 12.7995 18.4624 13.0079C18.7229 13.2163 19.0762 13.3333 19.4445 13.3333C19.8129 13.3333 20.1662 13.2163 20.4266 13.0079C20.6871 12.7995 20.8334 12.5169 20.8334 12.2222C20.8334 11.9275 20.6871 11.6449 20.4266 11.4365C20.1662 11.2282 19.8129 11.1111 19.4445 11.1111ZM16.6667 12.2222C16.6667 11.6329 16.9594 11.0676 17.4803 10.6509C18.0013 10.2341 18.7078 10 19.4445 10C20.1812 10 20.8878 10.2341 21.4087 10.6509C21.9296 11.0676 22.2223 11.6329 22.2223 12.2222C22.2223 12.8116 21.9296 13.3768 21.4087 13.7936C20.8878 14.2103 20.1812 14.4444 19.4445 14.4444C18.7078 14.4444 18.0013 14.2103 17.4803 13.7936C16.9594 13.3768 16.6667 12.8116 16.6667 12.2222Z" fill="#9944D7"/>
<path fill-rule="evenodd" clip-rule="evenodd" d="M15.482 17.1483C15.2854 17.3067 15.2778 17.3933 15.2778 17.4244V18.8889H23.6111V17.4244C23.6111 17.3933 23.6042 17.3067 23.407 17.1483C23.1986 16.98 22.8479 16.7961 22.3611 16.6261C21.3806 16.2822 20.1806 16.1111 19.4445 16.1111C18.7084 16.1111 17.5084 16.2833 16.5278 16.6256C16.041 16.7956 15.691 16.98 15.482 17.1483ZM19.4445 15C17.5903 15 13.8889 15.8122 13.8889 17.4244V20H25V17.4244C25 15.8122 21.2986 15 19.4445 15Z" fill="#9944D7"/>
<path fill-rule="evenodd" clip-rule="evenodd" d="M6.24997 17.7778C6.24997 18.0761 6.37497 18.3561 6.59511 18.5544C6.80414 18.7428 7.13261 18.8889 7.63886 18.8889H14.5833V20H7.63886C6.75622 20 6.04303 19.7294 5.55761 19.2928C5.08331 18.8661 4.86108 18.3128 4.86108 17.7778V15H6.24997V17.7778Z" fill="#9944D7"/>
<path fill-rule="evenodd" clip-rule="evenodd" d="M5.55548 13.6589L9.51867 16.8295L8.53673 17.615L5.55548 15.23L2.57423 17.615L1.59229 16.8295L5.55548 13.6589Z" fill="#9944D7"/>
<path fill-rule="evenodd" clip-rule="evenodd" d="M2.77778 1.66667C2.77778 1.22464 2.99727 0.800716 3.38797 0.488155C3.77867 0.175595 4.30858 0 4.86111 0H10.4167C10.9692 0 11.4991 0.175595 11.8898 0.488155C12.2805 0.800716 12.5 1.22464 12.5 1.66667V2.22222H15.2778V12.7778H0V2.22222H2.77778V1.66667ZM2.77778 3.33333H1.38889V4.44444H2.77778V3.33333ZM2.77778 5.55556H1.38889V11.6667H4.86111V8.33333H10.4167V11.6667H13.8889V5.55556H12.5V6.11111C12.5 6.55314 12.2805 6.97706 11.8898 7.28962C11.4991 7.60218 10.9692 7.77778 10.4167 7.77778H4.86111C4.30858 7.77778 3.77867 7.60218 3.38797 7.28962C2.99727 6.97706 2.77778 6.55314 2.77778 6.11111V5.55556ZM12.5 4.44444H13.8889V3.33333H12.5V4.44444ZM9.02778 11.6667V9.44444H6.25V11.6667H9.02778ZM4.86111 1.11111C4.67693 1.11111 4.5003 1.16964 4.37006 1.27383C4.23983 1.37802 4.16667 1.51932 4.16667 1.66667V6.11111C4.16667 6.25845 4.23983 6.39976 4.37006 6.50395C4.5003 6.60814 4.67693 6.66667 4.86111 6.66667H10.4167C10.6008 6.66667 10.7775 6.60814 10.9077 6.50395C11.0379 6.39976 11.1111 6.25845 11.1111 6.11111V1.66667C11.1111 1.51932 11.0379 1.37802 10.9077 1.27383C10.7775 1.16964 10.6008 1.11111 10.4167 1.11111H4.86111ZM6.94444 3.33333V1.66667H8.33333V3.33333H10.4167V4.44444H8.33333V6.11111H6.94444V4.44444H4.86111V3.33333H6.94444Z" fill="#9944D7"/>
</svg>
