<svg width="25" height="20" viewBox="0 0 25 20" fill="none" xmlns="http://www.w3.org/2000/svg">
<path d="M22.5 20H6.25C5.58696 20 4.95107 19.7366 4.48223 19.2678C4.01339 18.7989 3.75 18.163 3.75 17.5V6.175L0.2875 2.05C0.1125 1.8375 0 1.55 0 1.25C0 0.918479 0.131696 0.600537 0.366116 0.366117C0.600537 0.131696 0.918479 0 1.25 0H22.5C23.163 0 23.7989 0.263392 24.2678 0.732233C24.7366 1.20107 25 1.83696 25 2.5V17.5C25 18.163 24.7366 18.7989 24.2678 19.2678C23.7989 19.7366 23.163 20 22.5 20ZM8.125 3.75C7.95924 3.75 7.80027 3.81585 7.68306 3.93306C7.56585 4.05027 7.5 4.20924 7.5 4.375V5.625C7.5 5.79076 7.56585 5.94973 7.68306 6.06694C7.80027 6.18415 7.95924 6.25 8.125 6.25H20.625C20.7908 6.25 20.9497 6.18415 21.0669 6.06694C21.1842 5.94973 21.25 5.79076 21.25 5.625V4.375C21.25 4.20924 21.1842 4.05027 21.0669 3.93306C20.9497 3.81585 20.7908 3.75 20.625 3.75H8.125ZM8.125 8.75C7.95924 8.75 7.80027 8.81585 7.68306 8.93306C7.56585 9.05027 7.5 9.20924 7.5 9.375V10.625C7.5 10.7908 7.56585 10.9497 7.68306 11.0669C7.80027 11.1842 7.95924 11.25 8.125 11.25H20.625C20.7908 11.25 20.9497 11.1842 21.0669 11.0669C21.1842 10.9497 21.25 10.7908 21.25 10.625V9.375C21.25 9.20924 21.1842 9.05027 21.0669 8.93306C20.9497 8.81585 20.7908 8.75 20.625 8.75H8.125ZM8.125 13.75C7.95924 13.75 7.80027 13.8158 7.68306 13.9331C7.56585 14.0503 7.5 14.2092 7.5 14.375V15.625C7.5 15.7908 7.56585 15.9497 7.68306 16.0669C7.80027 16.1842 7.95924 16.25 8.125 16.25H14.375C14.5408 16.25 14.6997 16.1842 14.8169 16.0669C14.9342 15.9497 15 15.7908 15 15.625V14.375C15 14.2092 14.9342 14.0503 14.8169 13.9331C14.6997 13.8158 14.5408 13.75 14.375 13.75H8.125Z" fill="#752BAA"/>
</svg>
