<svg width="4584" height="4584" viewBox="0 0 4584 4584" fill="none" xmlns="http://www.w3.org/2000/svg">
<path fill-rule="evenodd" clip-rule="evenodd" d="M0.335994 383.249C0.335994 281.693 40.6789 184.297 112.49 112.486C184.3 40.6754 281.697 0.332542 383.253 0.332542H4200.34C4250.66 0.250343 4300.51 10.0956 4347.03 29.3048C4393.55 48.5139 4435.82 76.7096 4471.43 112.278C4507.04 147.846 4535.28 190.087 4554.54 236.585C4573.8 283.082 4583.7 332.921 4583.67 383.249V4200.33C4583.72 4250.67 4573.85 4300.53 4554.62 4347.04C4535.39 4393.56 4507.17 4435.83 4471.59 4471.44C4436 4507.04 4393.75 4535.28 4347.24 4554.54C4300.73 4573.8 4250.88 4583.69 4200.54 4583.67H383.253C332.95 4583.67 283.14 4573.75 236.669 4554.5C190.197 4535.24 147.976 4507.02 112.416 4471.44C76.8562 4435.86 48.6551 4393.62 29.424 4347.14C10.1929 4300.66 0.308626 4250.84 0.335994 4200.54V383.249ZM1814.5 1747.83H2435.13V2059.5C2524.71 1880.33 2753.88 1719.08 3098.25 1719.08C3758.46 1719.08 3914.92 2075.96 3914.92 2730.75V3943.67H3246.79V2879.92C3246.79 2507 3157.21 2296.58 2929.71 2296.58C2614.09 2296.58 2482.84 2523.46 2482.84 2879.92V3943.67H1814.5V1747.83ZM668.669 3915.12H1337V1719.08H668.669V3914.92V3915.12ZM1432.63 1002.83C1433.89 1060.06 1423.71 1116.95 1402.68 1170.19C1381.65 1223.42 1350.2 1271.92 1310.18 1312.84C1270.15 1353.76 1222.36 1386.26 1169.6 1408.46C1116.84 1430.65 1060.18 1442.09 1002.94 1442.09C945.703 1442.09 889.042 1430.65 836.283 1408.46C783.524 1386.26 735.729 1353.76 695.704 1312.84C655.679 1271.92 624.23 1223.42 603.203 1170.19C582.175 1116.95 571.993 1060.06 573.253 1002.83C575.726 890.51 622.083 783.622 702.395 705.059C782.708 626.495 890.591 582.503 1002.94 582.503C1115.29 582.503 1223.17 626.495 1303.48 705.059C1383.8 783.622 1430.15 890.51 1432.63 1002.83V1002.83Z" fill="#FFFFFF"/>
</svg>
