<svg width="24" height="22" viewBox="0 0 24 22" fill="none" xmlns="http://www.w3.org/2000/svg">
<path d="M20.8868 16.586H19.0332C18.9066 16.586 18.788 16.6393 18.7089 16.7332C18.5243 16.9491 18.3266 17.1573 18.1183 17.3553C17.2663 18.1765 16.2572 18.831 15.1467 19.2825C13.9962 19.7504 12.7596 19.9905 11.5106 19.9883C10.2477 19.9883 9.02422 19.7497 7.87461 19.2825C6.7641 18.831 5.75497 18.1765 4.90303 17.3553C4.04956 16.5369 3.36903 15.5668 2.89912 14.4989C2.41133 13.3918 2.16611 12.2163 2.16611 11C2.16611 9.78383 2.41397 8.60824 2.89912 7.50121C3.36846 6.43227 4.04346 5.46996 4.90303 4.64477C5.7626 3.81957 6.76192 3.16957 7.87461 2.71762C9.02422 2.25043 10.2477 2.01176 11.5106 2.01176C12.7736 2.01176 13.9971 2.24789 15.1467 2.71762C16.2594 3.16957 17.2587 3.81957 18.1183 4.64477C18.3266 4.84535 18.5217 5.05356 18.7089 5.26684C18.788 5.36078 18.9093 5.4141 19.0332 5.4141H20.8868C21.0529 5.4141 21.1558 5.23637 21.0635 5.1018C19.0411 2.07523 15.5026 0.0719134 11.4816 0.0820697C5.16406 0.0973041 0.0989264 5.03578 0.162208 11.1118C0.225489 17.0913 5.28272 21.918 11.5106 21.918C15.5211 21.918 19.0438 19.9172 21.0635 16.8983C21.1531 16.7637 21.0529 16.586 20.8868 16.586ZM23.2309 10.8401L19.4894 7.99633C19.3496 7.88969 19.1466 7.98617 19.1466 8.15629V10.086H10.8673C10.7513 10.086 10.6563 10.1774 10.6563 10.2891V11.711C10.6563 11.8227 10.7513 11.9141 10.8673 11.9141H19.1466V13.8438C19.1466 14.0139 19.3522 14.1104 19.4894 14.0038L23.2309 11.16C23.2561 11.141 23.2765 11.1167 23.2905 11.089C23.3045 11.0613 23.3118 11.0309 23.3118 11C23.3118 10.9692 23.3045 10.9388 23.2905 10.9111C23.2765 10.8834 23.2561 10.8591 23.2309 10.8401Z" fill="#9944D7"/>
</svg>
