<svg width="25" height="20" viewBox="0 0 25 20" fill="none" xmlns="http://www.w3.org/2000/svg">
<path fill-rule="evenodd" clip-rule="evenodd" d="M19.4448 11.1111C19.0764 11.1111 18.7231 11.2282 18.4627 11.4365C18.2022 11.6449 18.0559 11.9275 18.0559 12.2222C18.0559 12.5169 18.2022 12.7995 18.4627 13.0079C18.7231 13.2163 19.0764 13.3333 19.4448 13.3333C19.8131 13.3333 20.1664 13.2163 20.4269 13.0079C20.6873 12.7995 20.8337 12.5169 20.8337 12.2222C20.8337 11.9275 20.6873 11.6449 20.4269 11.4365C20.1664 11.2282 19.8131 11.1111 19.4448 11.1111ZM16.667 12.2222C16.667 11.6329 16.9597 11.0676 17.4806 10.6509C18.0015 10.2341 18.7081 10 19.4448 10C20.1815 10 20.888 10.2341 21.409 10.6509C21.9299 11.0676 22.2225 11.6329 22.2225 12.2222C22.2225 12.8116 21.9299 13.3768 21.409 13.7936C20.888 14.2103 20.1815 14.4444 19.4448 14.4444C18.7081 14.4444 18.0015 14.2103 17.4806 13.7936C16.9597 13.3768 16.667 12.8116 16.667 12.2222Z" fill="#9944D7"/>
<path fill-rule="evenodd" clip-rule="evenodd" d="M15.4817 17.1483C15.2852 17.3067 15.2776 17.3933 15.2776 17.4244V18.8889H23.6109V17.4244C23.6109 17.3933 23.604 17.3067 23.4067 17.1483C23.1984 16.98 22.8477 16.7961 22.3609 16.6261C21.3803 16.2822 20.1803 16.1111 19.4442 16.1111C18.7081 16.1111 17.5081 16.2833 16.5276 16.6256C16.0408 16.7956 15.6908 16.98 15.4817 17.1483ZM19.4442 15C17.5901 15 13.8887 15.8122 13.8887 17.4244V20H24.9998V17.4244C24.9998 15.8122 21.2984 15 19.4442 15Z" fill="#9944D7"/>
<path fill-rule="evenodd" clip-rule="evenodd" d="M6.25022 17.7778C6.25022 18.0761 6.37522 18.3561 6.59536 18.5544C6.80438 18.7428 7.13286 18.8889 7.63911 18.8889H14.5836V20H7.63911C6.75647 20 6.04327 19.7294 5.55786 19.2928C5.08355 18.8661 4.86133 18.3128 4.86133 17.7778V15H6.25022V17.7778Z" fill="#9944D7"/>
<path fill-rule="evenodd" clip-rule="evenodd" d="M5.55548 13.6589L9.51867 16.8295L8.53673 17.615L5.55548 15.23L2.57423 17.615L1.59229 16.8295L5.55548 13.6589Z" fill="#9944D7"/>
<path fill-rule="evenodd" clip-rule="evenodd" d="M2.77778 1.66667C2.77778 1.22464 2.99727 0.800716 3.38797 0.488155C3.77867 0.175595 4.30858 0 4.86111 0H10.4167C10.9692 0 11.4991 0.175595 11.8898 0.488155C12.2805 0.800716 12.5 1.22464 12.5 1.66667V2.22222H15.2778V12.7778H0V2.22222H2.77778V1.66667ZM2.77778 3.33333H1.38889V4.44444H2.77778V3.33333ZM2.77778 5.55556H1.38889V11.6667H4.86111V8.33333H10.4167V11.6667H13.8889V5.55556H12.5V6.11111C12.5 6.55314 12.2805 6.97706 11.8898 7.28962C11.4991 7.60218 10.9692 7.77778 10.4167 7.77778H4.86111C4.30858 7.77778 3.77867 7.60218 3.38797 7.28962C2.99727 6.97706 2.77778 6.55314 2.77778 6.11111V5.55556ZM12.5 4.44444H13.8889V3.33333H12.5V4.44444ZM9.02778 11.6667V9.44444H6.25V11.6667H9.02778ZM4.86111 1.11111C4.67693 1.11111 4.5003 1.16964 4.37006 1.27383C4.23983 1.37802 4.16667 1.51932 4.16667 1.66667V6.11111C4.16667 6.25845 4.23983 6.39976 4.37006 6.50395C4.5003 6.60814 4.67693 6.66667 4.86111 6.66667H10.4167C10.6008 6.66667 10.7775 6.60814 10.9077 6.50395C11.0379 6.39976 11.1111 6.25845 11.1111 6.11111V1.66667C11.1111 1.51932 11.0379 1.37802 10.9077 1.27383C10.7775 1.16964 10.6008 1.11111 10.4167 1.11111H4.86111ZM6.94444 3.33333V1.66667H8.33333V3.33333H10.4167V4.44444H8.33333V6.11111H6.94444V4.44444H4.86111V3.33333H6.94444Z" fill="#9944D7"/>
</svg>
