<svg width="25" height="20" viewBox="0 0 25 20" fill="none" xmlns="http://www.w3.org/2000/svg">
<path d="M12.5 6C13.863 6 15.1701 6.42143 16.1339 7.17157C17.0977 7.92172 17.6391 8.93913 17.6391 10C17.6391 11.0609 17.0977 12.0783 16.1339 12.8284C15.1701 13.5786 13.863 14 12.5 14C11.137 14 9.82988 13.5786 8.86611 12.8284C7.90234 12.0783 7.3609 11.0609 7.3609 10C7.3609 8.93913 7.90234 7.92172 8.86611 7.17157C9.82988 6.42143 11.137 6 12.5 6ZM12.5 8C11.8185 8 11.1649 8.21071 10.6831 8.58579C10.2012 8.96086 9.93045 9.46957 9.93045 10C9.93045 10.5304 10.2012 11.0391 10.6831 11.4142C11.1649 11.7893 11.8185 12 12.5 12C13.1815 12 13.8351 11.7893 14.3169 11.4142C14.7988 11.0391 15.0695 10.5304 15.0695 10C15.0695 9.46957 14.7988 8.96086 14.3169 8.58579C13.8351 8.21071 13.1815 8 12.5 8ZM9.93045 20C9.60926 20 9.33945 19.82 9.28806 19.58L8.8127 16.93C8.00329 16.68 7.30951 16.34 6.64143 15.94L3.44234 16.95C3.15969 17.03 2.8128 16.95 2.65863 16.73L0.0890754 13.27C-0.0779453 13.05 -0.000858618 12.78 0.243249 12.63L2.95412 10.97L2.86419 10L2.95412 9L0.243249 7.37C-0.000858618 7.22 -0.0779453 6.95 0.0890754 6.73L2.65863 3.27C2.8128 3.05 3.15969 2.96 3.44234 3.05L6.64143 4.05C7.30951 3.66 8.00329 3.32 8.8127 3.07L9.28806 0.42C9.33945 0.18 9.60926 0 9.93045 0H15.0695C15.3907 0 15.6605 0.18 15.7119 0.42L16.1873 3.07C16.9967 3.32 17.6905 3.66 18.3586 4.05L21.5577 3.05C21.8403 2.96 22.1872 3.05 22.3414 3.27L24.9109 6.73C25.0779 6.95 25.0009 7.22 24.7568 7.37L22.0459 9L22.1358 10L22.0459 11L24.7568 12.63C25.0009 12.78 25.0779 13.05 24.9109 13.27L22.3414 16.73C22.1872 16.95 21.8403 17.04 21.5577 16.95L18.3586 15.95C17.6905 16.34 16.9967 16.68 16.1873 16.93L15.7119 19.58C15.6605 19.82 15.3907 20 15.0695 20H9.93045ZM11.5364 2L11.0611 4.61C9.51932 4.86 8.15746 5.5 7.16818 6.39L4.07188 5.35L3.1083 6.65L5.81917 8.2C5.30526 9.37 5.30526 10.64 5.81917 11.8L3.09545 13.36L4.05903 14.66L7.18103 13.62C8.17031 14.5 9.51932 15.14 11.0482 15.38L11.5236 18H13.4764L13.9518 15.39C15.4807 15.14 16.8297 14.5 17.819 13.62L20.941 14.66L21.9046 13.36L19.1808 11.81C19.6947 10.64 19.6947 9.37 19.1808 8.2L21.8917 6.65L20.9281 5.35L17.8318 6.39C16.8425 5.5 15.4807 4.86 13.9389 4.62L13.4636 2H11.5364Z" fill="#865BAE"/>
</svg>
