<svg width="252" height="252" viewBox="0 0 252 252" fill="none" xmlns="http://www.w3.org/2000/svg">
<path d="M155.375 126L244.958 36.625C248.881 32.702 251.085 27.3813 251.085 21.8334C251.085 16.2854 248.881 10.9647 244.958 7.04171C241.035 3.11871 235.715 0.914795 230.167 0.914795C224.619 0.914795 219.298 3.11871 215.375 7.04171L126 96.625L36.625 7.04171C32.702 3.11871 27.3812 0.914795 21.8333 0.914795C16.2853 0.914795 10.9646 3.11871 7.04162 7.04171C3.11862 10.9647 0.914705 16.2854 0.914705 21.8334C0.914705 27.3813 3.11862 32.702 7.04162 36.625L96.625 126L7.04162 215.375C5.08894 217.312 3.53906 219.616 2.48138 222.155C1.4237 224.693 0.87915 227.416 0.87915 230.167C0.87915 232.917 1.4237 235.64 2.48138 238.179C3.53906 240.717 5.08894 243.022 7.04162 244.958C8.97834 246.911 11.2825 248.461 13.8213 249.519C16.36 250.576 19.083 251.121 21.8333 251.121C24.5835 251.121 27.3066 250.576 29.8453 249.519C32.384 248.461 34.6882 246.911 36.625 244.958L126 155.375L215.375 244.958C217.312 246.911 219.616 248.461 222.155 249.519C224.693 250.576 227.416 251.121 230.167 251.121C232.917 251.121 235.64 250.576 238.179 249.519C240.717 248.461 243.022 246.911 244.958 244.958C246.911 243.022 248.461 240.717 249.519 238.179C250.576 235.64 251.121 232.917 251.121 230.167C251.121 227.416 250.576 224.693 249.519 222.155C248.461 219.616 246.911 217.312 244.958 215.375L155.375 126Z" fill="#808080"/>
</svg>
