<svg width="4375" height="4376" viewBox="0 0 4375 4376" fill="none" xmlns="http://www.w3.org/2000/svg">
<path d="M3906.25 0.5H468.75C209.961 0.5 0 210.461 0 469.25V3906.75C0 4165.54 209.961 4375.5 468.75 4375.5H3906.25C4165.04 4375.5 4375 4165.54 4375 3906.75V469.25C4375 210.461 4165.04 0.5 3906.25 0.5ZM3428.71 1551.28C3430.66 1578.63 3430.66 1606.95 3430.66 1634.29C3430.66 2480.97 2786.13 3456.55 1608.4 3456.55C1245.12 3456.55 908.203 3351.09 625 3169.45C676.758 3175.3 726.563 3177.26 779.297 3177.26C1079.1 3177.26 1354.49 3075.7 1574.22 2903.82C1292.97 2897.96 1056.64 2713.39 975.586 2459.48C1074.22 2474.13 1163.09 2474.13 1264.65 2447.77C971.68 2388.2 751.953 2130.38 751.953 1818.86V1811.05C836.914 1858.9 936.523 1888.2 1041.02 1892.1C953.167 1833.67 881.151 1754.39 831.394 1661.35C781.637 1568.32 755.687 1464.41 755.859 1358.9C755.859 1239.76 787.109 1130.38 842.773 1035.66C1158.2 1424.33 1631.84 1678.23 2163.09 1705.58C2072.27 1271.01 2397.46 918.469 2788.09 918.469C2972.66 918.469 3138.67 995.617 3255.86 1120.62C3400.39 1093.27 3539.06 1039.56 3662.11 966.32C3614.26 1114.76 3513.67 1239.76 3380.86 1318.86C3509.77 1305.19 3634.77 1269.05 3750 1219.25C3663.09 1347.18 3553.71 1460.46 3428.71 1551.28Z" fill="#FFFFFF"/>
</svg>
