<svg width="405" height="417" viewBox="0 0 405 417" fill="none" xmlns="http://www.w3.org/2000/svg">
<path d="M240.053 416.667H164.219C159.468 416.667 154.859 415.044 151.157 412.066C147.455 409.087 144.882 404.933 143.865 400.292L135.386 361.042C124.075 356.085 113.349 349.888 103.407 342.563L65.1359 354.75C60.6059 356.195 55.7181 356.046 51.2842 354.329C46.8502 352.613 43.1369 349.431 40.7609 345.313L2.76086 279.667C0.409717 275.544 -0.472843 270.746 0.257571 266.057C0.987985 261.368 3.28813 257.066 6.78169 253.854L36.4692 226.771C35.1191 214.502 35.1191 202.123 36.4692 189.854L6.78169 162.833C3.28318 159.62 0.979909 155.314 0.249376 150.62C-0.481158 145.927 0.404383 141.124 2.76086 137L40.6775 71.3125C43.0536 67.1941 46.7669 64.0123 51.2009 62.2956C55.6348 60.5788 60.5226 60.4304 65.0525 61.875L103.323 74.0625C108.407 70.3125 113.698 66.8125 119.157 63.6458C124.428 60.6875 129.844 58 135.386 55.6042L143.886 16.3958C144.898 11.7541 147.466 7.59766 151.164 4.6156C154.862 1.63354 159.468 0.00499929 164.219 0H240.053C244.803 0.00499929 249.41 1.63354 253.108 4.6156C256.806 7.59766 259.374 11.7541 260.386 16.3958L268.969 55.625C280.274 60.5812 290.993 66.779 300.928 74.1042L339.219 61.9167C343.746 60.4774 348.629 60.6286 353.059 62.345C357.488 64.0615 361.198 67.2402 363.573 71.3542L401.49 137.042C406.323 145.521 404.657 156.25 397.469 162.854L367.782 189.938C369.132 202.206 369.132 214.586 367.782 226.854L397.469 253.938C404.657 260.563 406.323 271.271 401.49 279.75L363.573 345.438C361.197 349.556 357.484 352.738 353.05 354.454C348.616 356.171 343.728 356.32 339.198 354.875L300.928 342.688C290.993 350.007 280.274 356.198 268.969 361.146L260.386 400.292C259.37 404.93 256.8 409.081 253.102 412.059C249.404 415.037 244.8 416.663 240.053 416.667ZM110.886 296.438L127.969 308.938C131.823 311.771 135.823 314.375 139.99 316.75C143.907 319.021 147.907 321.063 152.053 322.917L171.49 331.438L181.011 375H223.303L232.823 331.417L252.261 322.896C260.74 319.146 268.803 314.5 276.282 309.021L293.365 296.521L335.907 310.062L357.053 273.438L324.073 243.375L326.407 222.292C327.448 213.063 327.448 203.75 326.407 194.542L324.073 173.458L357.073 143.333L335.907 106.688L293.386 120.229L276.282 107.729C268.798 102.223 260.745 97.5361 252.261 93.75L232.823 85.2292L223.303 41.6667H181.011L171.428 85.25L152.053 93.75C143.556 97.471 135.5 102.125 128.032 107.625L110.928 120.125L68.4275 106.583L47.24 143.333L80.2192 173.354L77.8859 194.458C76.8442 203.687 76.8442 213 77.8859 222.208L80.2192 243.292L47.24 273.354L68.3859 309.979L110.886 296.438ZM202.053 291.667C179.951 291.667 158.755 282.887 143.127 267.259C127.499 251.631 118.719 230.435 118.719 208.333C118.719 186.232 127.499 165.036 143.127 149.408C158.755 133.78 179.951 125 202.053 125C224.154 125 245.35 133.78 260.978 149.408C276.606 165.036 285.386 186.232 285.386 208.333C285.386 230.435 276.606 251.631 260.978 267.259C245.35 282.887 224.154 291.667 202.053 291.667ZM202.053 166.667C193.893 166.675 185.916 169.079 179.11 173.579C172.305 178.08 166.971 184.48 163.769 191.985C160.568 199.49 159.64 207.77 161.102 215.797C162.564 223.824 166.35 231.246 171.991 237.141C177.632 243.036 184.88 247.145 192.835 248.958C200.79 250.771 209.103 250.209 216.741 247.341C224.38 244.473 231.008 239.425 235.804 232.824C240.6 226.223 243.352 218.359 243.719 210.208V218.542V208.333C243.719 197.283 239.329 186.685 231.515 178.871C223.701 171.057 213.103 166.667 202.053 166.667Z" fill="#FFFFFF"/>
</svg>
